<mxfile host="app.diagrams.net" agent="Mozilla/5.0 (Macintosh; Intel Mac OS X 10_15_7) AppleWebKit/537.36 (KHTML, like Gecko) Chrome/129.0.0.0 Safari/537.36" version="24.8.0" pages="2">
  <diagram name="Page-1" id="nqH6Lsv2ld275b56rVg_">
    <mxGraphModel dx="1434" dy="868" grid="1" gridSize="10" guides="1" tooltips="1" connect="1" arrows="1" fold="1" page="1" pageScale="1" pageWidth="1000" pageHeight="700" math="0" shadow="0">
      <root>
        <mxCell id="0" />
        <mxCell id="1" parent="0" />
        <mxCell id="MrbG-8pVcBNi91wBxglR-1" value="Passenger" style="rounded=0;whiteSpace=wrap;html=1;" vertex="1" parent="1">
          <mxGeometry x="970" y="610" width="120" height="30" as="geometry" />
        </mxCell>
        <mxCell id="MrbG-8pVcBNi91wBxglR-2" value="Aircraft" style="rounded=0;whiteSpace=wrap;html=1;" vertex="1" parent="1">
          <mxGeometry x="1300" y="610" width="120" height="30" as="geometry" />
        </mxCell>
        <mxCell id="MrbG-8pVcBNi91wBxglR-3" value="Flight" style="rounded=0;whiteSpace=wrap;html=1;" vertex="1" parent="1">
          <mxGeometry x="1300" y="900" width="120" height="30" as="geometry" />
        </mxCell>
        <mxCell id="MrbG-8pVcBNi91wBxglR-4" value="uses&lt;div&gt;n:1&lt;/div&gt;" style="rhombus;whiteSpace=wrap;html=1;" vertex="1" parent="1">
          <mxGeometry x="1320" y="720" width="80" height="80" as="geometry" />
        </mxCell>
        <mxCell id="MrbG-8pVcBNi91wBxglR-5" value="Reservation" style="rounded=0;whiteSpace=wrap;html=1;" vertex="1" parent="1">
          <mxGeometry x="940" y="890" width="120" height="30" as="geometry" />
        </mxCell>
        <mxCell id="MrbG-8pVcBNi91wBxglR-6" value="includes&lt;div&gt;1:1&lt;/div&gt;" style="rhombus;whiteSpace=wrap;html=1;" vertex="1" parent="1">
          <mxGeometry x="920" y="720" width="80" height="80" as="geometry" />
        </mxCell>
        <mxCell id="MrbG-8pVcBNi91wBxglR-7" value="" style="endArrow=none;html=1;rounded=0;entryX=1;entryY=1;entryDx=0;entryDy=0;exitX=0.5;exitY=0;exitDx=0;exitDy=0;" edge="1" parent="1" source="MrbG-8pVcBNi91wBxglR-5" target="MrbG-8pVcBNi91wBxglR-6">
          <mxGeometry width="50" height="50" relative="1" as="geometry">
            <mxPoint x="860" y="970" as="sourcePoint" />
            <mxPoint x="910" y="920" as="targetPoint" />
          </mxGeometry>
        </mxCell>
        <mxCell id="MrbG-8pVcBNi91wBxglR-8" value="" style="endArrow=none;html=1;rounded=0;entryX=0.5;entryY=1;entryDx=0;entryDy=0;exitX=1;exitY=0;exitDx=0;exitDy=0;" edge="1" parent="1" source="MrbG-8pVcBNi91wBxglR-6" target="MrbG-8pVcBNi91wBxglR-1">
          <mxGeometry width="50" height="50" relative="1" as="geometry">
            <mxPoint x="960" y="1010" as="sourcePoint" />
            <mxPoint x="1010" y="960" as="targetPoint" />
          </mxGeometry>
        </mxCell>
        <mxCell id="MrbG-8pVcBNi91wBxglR-9" value="Is For&lt;div&gt;1:1&lt;/div&gt;" style="rhombus;whiteSpace=wrap;html=1;" vertex="1" parent="1">
          <mxGeometry x="1140" y="865" width="80" height="80" as="geometry" />
        </mxCell>
        <mxCell id="MrbG-8pVcBNi91wBxglR-10" value="" style="endArrow=none;html=1;rounded=0;exitX=1;exitY=0.25;exitDx=0;exitDy=0;" edge="1" parent="1" source="MrbG-8pVcBNi91wBxglR-5" target="MrbG-8pVcBNi91wBxglR-9">
          <mxGeometry width="50" height="50" relative="1" as="geometry">
            <mxPoint x="1120" y="880" as="sourcePoint" />
            <mxPoint x="1170" y="830" as="targetPoint" />
          </mxGeometry>
        </mxCell>
        <mxCell id="MrbG-8pVcBNi91wBxglR-11" value="" style="endArrow=none;html=1;rounded=0;entryX=0;entryY=0.5;entryDx=0;entryDy=0;exitX=1;exitY=0.5;exitDx=0;exitDy=0;" edge="1" parent="1" source="MrbG-8pVcBNi91wBxglR-9" target="MrbG-8pVcBNi91wBxglR-3">
          <mxGeometry width="50" height="50" relative="1" as="geometry">
            <mxPoint x="1270" y="850" as="sourcePoint" />
            <mxPoint x="1320" y="800" as="targetPoint" />
          </mxGeometry>
        </mxCell>
        <mxCell id="MrbG-8pVcBNi91wBxglR-12" value="" style="endArrow=none;html=1;rounded=0;exitX=0.5;exitY=0;exitDx=0;exitDy=0;entryX=0.5;entryY=1;entryDx=0;entryDy=0;" edge="1" parent="1" source="MrbG-8pVcBNi91wBxglR-3" target="MrbG-8pVcBNi91wBxglR-4">
          <mxGeometry width="50" height="50" relative="1" as="geometry">
            <mxPoint x="1270" y="850" as="sourcePoint" />
            <mxPoint x="1320" y="800" as="targetPoint" />
          </mxGeometry>
        </mxCell>
        <mxCell id="MrbG-8pVcBNi91wBxglR-13" value="" style="endArrow=none;html=1;rounded=0;entryX=0.5;entryY=1;entryDx=0;entryDy=0;exitX=0.5;exitY=0;exitDx=0;exitDy=0;" edge="1" parent="1" source="MrbG-8pVcBNi91wBxglR-4" target="MrbG-8pVcBNi91wBxglR-2">
          <mxGeometry width="50" height="50" relative="1" as="geometry">
            <mxPoint x="1270" y="850" as="sourcePoint" />
            <mxPoint x="1320" y="800" as="targetPoint" />
          </mxGeometry>
        </mxCell>
        <mxCell id="MrbG-8pVcBNi91wBxglR-14" value="manages&lt;div&gt;1:1&lt;/div&gt;" style="rhombus;whiteSpace=wrap;html=1;" vertex="1" parent="1">
          <mxGeometry x="1060" y="720" width="80" height="80" as="geometry" />
        </mxCell>
        <mxCell id="MrbG-8pVcBNi91wBxglR-15" value="" style="endArrow=none;html=1;rounded=0;entryX=0.5;entryY=1;entryDx=0;entryDy=0;exitX=0;exitY=0;exitDx=0;exitDy=0;" edge="1" parent="1" source="MrbG-8pVcBNi91wBxglR-14" target="MrbG-8pVcBNi91wBxglR-1">
          <mxGeometry width="50" height="50" relative="1" as="geometry">
            <mxPoint x="1070" y="780" as="sourcePoint" />
            <mxPoint x="1120" y="730" as="targetPoint" />
          </mxGeometry>
        </mxCell>
        <mxCell id="MrbG-8pVcBNi91wBxglR-16" value="" style="endArrow=none;html=1;rounded=0;entryX=0.5;entryY=0;entryDx=0;entryDy=0;exitX=0;exitY=1;exitDx=0;exitDy=0;" edge="1" parent="1" source="MrbG-8pVcBNi91wBxglR-14" target="MrbG-8pVcBNi91wBxglR-5">
          <mxGeometry width="50" height="50" relative="1" as="geometry">
            <mxPoint x="1070" y="800" as="sourcePoint" />
            <mxPoint x="1120" y="730" as="targetPoint" />
          </mxGeometry>
        </mxCell>
        <mxCell id="MrbG-8pVcBNi91wBxglR-17" value="Aircraft_ID" style="ellipse;whiteSpace=wrap;html=1;" vertex="1" parent="1">
          <mxGeometry x="1210" y="510" width="80" height="40" as="geometry" />
        </mxCell>
        <mxCell id="MrbG-8pVcBNi91wBxglR-18" value="Model" style="ellipse;whiteSpace=wrap;html=1;" vertex="1" parent="1">
          <mxGeometry x="1310" y="510" width="80" height="40" as="geometry" />
        </mxCell>
        <mxCell id="MrbG-8pVcBNi91wBxglR-19" value="Has_WiFI" style="ellipse;whiteSpace=wrap;html=1;" vertex="1" parent="1">
          <mxGeometry x="1410" y="510" width="80" height="40" as="geometry" />
        </mxCell>
        <mxCell id="MrbG-8pVcBNi91wBxglR-20" value="Has_Power_Outlets" style="ellipse;whiteSpace=wrap;html=1;" vertex="1" parent="1">
          <mxGeometry x="1460" y="560" width="120" height="40" as="geometry" />
        </mxCell>
        <mxCell id="MrbG-8pVcBNi91wBxglR-21" value="Number_Of_Seats" style="ellipse;whiteSpace=wrap;html=1;" vertex="1" parent="1">
          <mxGeometry x="1460" y="620" width="120" height="40" as="geometry" />
        </mxCell>
        <mxCell id="MrbG-8pVcBNi91wBxglR-22" value="" style="endArrow=none;html=1;rounded=0;entryX=0.5;entryY=1;entryDx=0;entryDy=0;exitX=0;exitY=0;exitDx=0;exitDy=0;" edge="1" parent="1" source="MrbG-8pVcBNi91wBxglR-2" target="MrbG-8pVcBNi91wBxglR-17">
          <mxGeometry width="50" height="50" relative="1" as="geometry">
            <mxPoint x="1290" y="840" as="sourcePoint" />
            <mxPoint x="1340" y="790" as="targetPoint" />
          </mxGeometry>
        </mxCell>
        <mxCell id="MrbG-8pVcBNi91wBxglR-23" value="" style="endArrow=none;html=1;rounded=0;entryX=0.5;entryY=1;entryDx=0;entryDy=0;exitX=0.5;exitY=0;exitDx=0;exitDy=0;" edge="1" parent="1" source="MrbG-8pVcBNi91wBxglR-2" target="MrbG-8pVcBNi91wBxglR-18">
          <mxGeometry width="50" height="50" relative="1" as="geometry">
            <mxPoint x="1290" y="840" as="sourcePoint" />
            <mxPoint x="1340" y="790" as="targetPoint" />
          </mxGeometry>
        </mxCell>
        <mxCell id="MrbG-8pVcBNi91wBxglR-24" value="" style="endArrow=none;html=1;rounded=0;entryX=0;entryY=1;entryDx=0;entryDy=0;" edge="1" parent="1" target="MrbG-8pVcBNi91wBxglR-19">
          <mxGeometry width="50" height="50" relative="1" as="geometry">
            <mxPoint x="1390" y="610" as="sourcePoint" />
            <mxPoint x="1340" y="790" as="targetPoint" />
          </mxGeometry>
        </mxCell>
        <mxCell id="MrbG-8pVcBNi91wBxglR-25" value="" style="endArrow=none;html=1;rounded=0;entryX=0;entryY=0.5;entryDx=0;entryDy=0;exitX=1;exitY=0;exitDx=0;exitDy=0;" edge="1" parent="1" source="MrbG-8pVcBNi91wBxglR-2" target="MrbG-8pVcBNi91wBxglR-20">
          <mxGeometry width="50" height="50" relative="1" as="geometry">
            <mxPoint x="1290" y="840" as="sourcePoint" />
            <mxPoint x="1340" y="790" as="targetPoint" />
          </mxGeometry>
        </mxCell>
        <mxCell id="MrbG-8pVcBNi91wBxglR-26" value="" style="endArrow=none;html=1;rounded=0;entryX=0;entryY=0.5;entryDx=0;entryDy=0;exitX=1;exitY=0.75;exitDx=0;exitDy=0;" edge="1" parent="1" source="MrbG-8pVcBNi91wBxglR-2" target="MrbG-8pVcBNi91wBxglR-21">
          <mxGeometry width="50" height="50" relative="1" as="geometry">
            <mxPoint x="1290" y="840" as="sourcePoint" />
            <mxPoint x="1340" y="790" as="targetPoint" />
          </mxGeometry>
        </mxCell>
        <mxCell id="MrbG-8pVcBNi91wBxglR-27" value="Flight_ID" style="ellipse;whiteSpace=wrap;html=1;" vertex="1" parent="1">
          <mxGeometry x="1370" y="980" width="80" height="40" as="geometry" />
        </mxCell>
        <mxCell id="MrbG-8pVcBNi91wBxglR-28" value="Flight_Number" style="ellipse;whiteSpace=wrap;html=1;" vertex="1" parent="1">
          <mxGeometry x="1460" y="940" width="80" height="40" as="geometry" />
        </mxCell>
        <mxCell id="MrbG-8pVcBNi91wBxglR-29" value="Departure" style="ellipse;whiteSpace=wrap;html=1;" vertex="1" parent="1">
          <mxGeometry x="1460" y="880" width="80" height="40" as="geometry" />
        </mxCell>
        <mxCell id="MrbG-8pVcBNi91wBxglR-30" value="Arrival" style="ellipse;whiteSpace=wrap;html=1;" vertex="1" parent="1">
          <mxGeometry x="1240" y="970" width="80" height="40" as="geometry" />
        </mxCell>
        <mxCell id="MrbG-8pVcBNi91wBxglR-31" value="Destination" style="ellipse;whiteSpace=wrap;html=1;" vertex="1" parent="1">
          <mxGeometry x="1420" y="810" width="80" height="40" as="geometry" />
        </mxCell>
        <mxCell id="MrbG-8pVcBNi91wBxglR-32" value="Origin" style="ellipse;whiteSpace=wrap;html=1;" vertex="1" parent="1">
          <mxGeometry x="1300" y="1030" width="80" height="40" as="geometry" />
        </mxCell>
        <mxCell id="MrbG-8pVcBNi91wBxglR-33" value="" style="endArrow=none;html=1;rounded=0;entryX=0;entryY=1;entryDx=0;entryDy=0;exitX=0.75;exitY=0;exitDx=0;exitDy=0;" edge="1" parent="1" source="MrbG-8pVcBNi91wBxglR-3" target="MrbG-8pVcBNi91wBxglR-31">
          <mxGeometry width="50" height="50" relative="1" as="geometry">
            <mxPoint x="1310" y="840" as="sourcePoint" />
            <mxPoint x="1360" y="790" as="targetPoint" />
          </mxGeometry>
        </mxCell>
        <mxCell id="MrbG-8pVcBNi91wBxglR-34" value="" style="endArrow=none;html=1;rounded=0;entryX=0;entryY=0.5;entryDx=0;entryDy=0;exitX=1;exitY=0.25;exitDx=0;exitDy=0;" edge="1" parent="1" source="MrbG-8pVcBNi91wBxglR-3" target="MrbG-8pVcBNi91wBxglR-29">
          <mxGeometry width="50" height="50" relative="1" as="geometry">
            <mxPoint x="1310" y="840" as="sourcePoint" />
            <mxPoint x="1360" y="790" as="targetPoint" />
          </mxGeometry>
        </mxCell>
        <mxCell id="MrbG-8pVcBNi91wBxglR-35" value="" style="endArrow=none;html=1;rounded=0;entryX=0;entryY=0.5;entryDx=0;entryDy=0;exitX=1;exitY=1;exitDx=0;exitDy=0;" edge="1" parent="1" source="MrbG-8pVcBNi91wBxglR-3" target="MrbG-8pVcBNi91wBxglR-28">
          <mxGeometry width="50" height="50" relative="1" as="geometry">
            <mxPoint x="1310" y="840" as="sourcePoint" />
            <mxPoint x="1360" y="790" as="targetPoint" />
          </mxGeometry>
        </mxCell>
        <mxCell id="MrbG-8pVcBNi91wBxglR-36" value="" style="endArrow=none;html=1;rounded=0;entryX=0.5;entryY=0;entryDx=0;entryDy=0;exitX=0.75;exitY=1;exitDx=0;exitDy=0;" edge="1" parent="1" source="MrbG-8pVcBNi91wBxglR-3" target="MrbG-8pVcBNi91wBxglR-27">
          <mxGeometry width="50" height="50" relative="1" as="geometry">
            <mxPoint x="1310" y="840" as="sourcePoint" />
            <mxPoint x="1360" y="790" as="targetPoint" />
          </mxGeometry>
        </mxCell>
        <mxCell id="MrbG-8pVcBNi91wBxglR-37" value="" style="endArrow=none;html=1;rounded=0;entryX=0.5;entryY=0;entryDx=0;entryDy=0;exitX=0.5;exitY=1;exitDx=0;exitDy=0;" edge="1" parent="1" source="MrbG-8pVcBNi91wBxglR-3" target="MrbG-8pVcBNi91wBxglR-32">
          <mxGeometry width="50" height="50" relative="1" as="geometry">
            <mxPoint x="1310" y="840" as="sourcePoint" />
            <mxPoint x="1360" y="790" as="targetPoint" />
          </mxGeometry>
        </mxCell>
        <mxCell id="MrbG-8pVcBNi91wBxglR-38" value="" style="endArrow=none;html=1;rounded=0;exitX=0.5;exitY=0;exitDx=0;exitDy=0;entryX=0;entryY=1;entryDx=0;entryDy=0;" edge="1" parent="1" source="MrbG-8pVcBNi91wBxglR-30" target="MrbG-8pVcBNi91wBxglR-3">
          <mxGeometry width="50" height="50" relative="1" as="geometry">
            <mxPoint x="1310" y="840" as="sourcePoint" />
            <mxPoint x="1360" y="790" as="targetPoint" />
          </mxGeometry>
        </mxCell>
        <mxCell id="MrbG-8pVcBNi91wBxglR-39" value="Reservation_ID" style="ellipse;whiteSpace=wrap;html=1;" vertex="1" parent="1">
          <mxGeometry x="870" y="970" width="100" height="40" as="geometry" />
        </mxCell>
        <mxCell id="MrbG-8pVcBNi91wBxglR-40" value="Booking_Reference_Number" style="ellipse;whiteSpace=wrap;html=1;" vertex="1" parent="1">
          <mxGeometry x="860" y="1030" width="170" height="40" as="geometry" />
        </mxCell>
        <mxCell id="MrbG-8pVcBNi91wBxglR-41" value="Reservation_Date" style="ellipse;whiteSpace=wrap;html=1;" vertex="1" parent="1">
          <mxGeometry x="1070" y="940" width="100" height="40" as="geometry" />
        </mxCell>
        <mxCell id="MrbG-8pVcBNi91wBxglR-42" value="Is_Checked_In" style="ellipse;whiteSpace=wrap;html=1;" vertex="1" parent="1">
          <mxGeometry x="1045" y="990" width="100" height="40" as="geometry" />
        </mxCell>
        <mxCell id="MrbG-8pVcBNi91wBxglR-43" value="" style="endArrow=none;html=1;rounded=0;entryX=0.25;entryY=1;entryDx=0;entryDy=0;exitX=0.5;exitY=0;exitDx=0;exitDy=0;" edge="1" parent="1" source="MrbG-8pVcBNi91wBxglR-39" target="MrbG-8pVcBNi91wBxglR-5">
          <mxGeometry width="50" height="50" relative="1" as="geometry">
            <mxPoint x="1030" y="1140" as="sourcePoint" />
            <mxPoint x="1080" y="1090" as="targetPoint" />
          </mxGeometry>
        </mxCell>
        <mxCell id="MrbG-8pVcBNi91wBxglR-44" value="" style="endArrow=none;html=1;rounded=0;entryX=0.5;entryY=1;entryDx=0;entryDy=0;exitX=0.682;exitY=0.038;exitDx=0;exitDy=0;exitPerimeter=0;" edge="1" parent="1" source="MrbG-8pVcBNi91wBxglR-40" target="MrbG-8pVcBNi91wBxglR-5">
          <mxGeometry width="50" height="50" relative="1" as="geometry">
            <mxPoint x="990" y="1020" as="sourcePoint" />
            <mxPoint x="1080" y="1090" as="targetPoint" />
          </mxGeometry>
        </mxCell>
        <mxCell id="MrbG-8pVcBNi91wBxglR-45" value="" style="endArrow=none;html=1;rounded=0;entryX=0.75;entryY=1;entryDx=0;entryDy=0;exitX=0;exitY=0;exitDx=0;exitDy=0;" edge="1" parent="1" source="MrbG-8pVcBNi91wBxglR-42" target="MrbG-8pVcBNi91wBxglR-5">
          <mxGeometry width="50" height="50" relative="1" as="geometry">
            <mxPoint x="1030" y="1140" as="sourcePoint" />
            <mxPoint x="1080" y="1090" as="targetPoint" />
          </mxGeometry>
        </mxCell>
        <mxCell id="MrbG-8pVcBNi91wBxglR-46" value="" style="endArrow=none;html=1;rounded=0;entryX=1;entryY=1;entryDx=0;entryDy=0;exitX=0;exitY=0;exitDx=0;exitDy=0;" edge="1" parent="1" source="MrbG-8pVcBNi91wBxglR-41" target="MrbG-8pVcBNi91wBxglR-5">
          <mxGeometry width="50" height="50" relative="1" as="geometry">
            <mxPoint x="1030" y="1140" as="sourcePoint" />
            <mxPoint x="1080" y="1090" as="targetPoint" />
          </mxGeometry>
        </mxCell>
        <mxCell id="MrbG-8pVcBNi91wBxglR-47" value="Passenger_ID" style="ellipse;whiteSpace=wrap;html=1;" vertex="1" parent="1">
          <mxGeometry x="900" y="540" width="80" height="40" as="geometry" />
        </mxCell>
        <mxCell id="MrbG-8pVcBNi91wBxglR-48" value="Name" style="ellipse;whiteSpace=wrap;html=1;" vertex="1" parent="1">
          <mxGeometry x="1020" y="540" width="80" height="40" as="geometry" />
        </mxCell>
        <mxCell id="MrbG-8pVcBNi91wBxglR-49" value="First Name" style="ellipse;whiteSpace=wrap;html=1;" vertex="1" parent="1">
          <mxGeometry x="960" y="460" width="80" height="40" as="geometry" />
        </mxCell>
        <mxCell id="MrbG-8pVcBNi91wBxglR-50" value="Last Name" style="ellipse;whiteSpace=wrap;html=1;" vertex="1" parent="1">
          <mxGeometry x="1080" y="460" width="80" height="40" as="geometry" />
        </mxCell>
        <mxCell id="MrbG-8pVcBNi91wBxglR-51" value="" style="endArrow=none;html=1;rounded=0;entryX=0.5;entryY=1;entryDx=0;entryDy=0;exitX=0.182;exitY=-0.019;exitDx=0;exitDy=0;exitPerimeter=0;" edge="1" parent="1" target="MrbG-8pVcBNi91wBxglR-49">
          <mxGeometry width="50" height="50" relative="1" as="geometry">
            <mxPoint x="1037.74" y="541.835" as="sourcePoint" />
            <mxPoint x="1070" y="780" as="targetPoint" />
          </mxGeometry>
        </mxCell>
        <mxCell id="MrbG-8pVcBNi91wBxglR-52" value="" style="endArrow=none;html=1;rounded=0;entryX=0.5;entryY=1;entryDx=0;entryDy=0;exitX=0.723;exitY=0.071;exitDx=0;exitDy=0;exitPerimeter=0;" edge="1" parent="1" target="MrbG-8pVcBNi91wBxglR-50">
          <mxGeometry width="50" height="50" relative="1" as="geometry">
            <mxPoint x="1075.61" y="544.9850000000001" as="sourcePoint" />
            <mxPoint x="1070" y="780" as="targetPoint" />
          </mxGeometry>
        </mxCell>
        <mxCell id="MrbG-8pVcBNi91wBxglR-53" value="Date_Of_Birth" style="ellipse;whiteSpace=wrap;html=1;" vertex="1" parent="1">
          <mxGeometry x="1110" y="580" width="80" height="40" as="geometry" />
        </mxCell>
        <mxCell id="MrbG-8pVcBNi91wBxglR-54" value="" style="endArrow=none;html=1;rounded=0;entryX=0;entryY=0.5;entryDx=0;entryDy=0;exitX=1;exitY=0;exitDx=0;exitDy=0;" edge="1" parent="1" source="MrbG-8pVcBNi91wBxglR-1" target="MrbG-8pVcBNi91wBxglR-53">
          <mxGeometry width="50" height="50" relative="1" as="geometry">
            <mxPoint x="1040" y="790" as="sourcePoint" />
            <mxPoint x="1090" y="740" as="targetPoint" />
          </mxGeometry>
        </mxCell>
        <mxCell id="MrbG-8pVcBNi91wBxglR-55" value="" style="endArrow=none;html=1;rounded=0;entryX=0.5;entryY=1;entryDx=0;entryDy=0;" edge="1" parent="1" target="MrbG-8pVcBNi91wBxglR-48">
          <mxGeometry width="50" height="50" relative="1" as="geometry">
            <mxPoint x="1060" y="610" as="sourcePoint" />
            <mxPoint x="1090" y="740" as="targetPoint" />
          </mxGeometry>
        </mxCell>
        <mxCell id="MrbG-8pVcBNi91wBxglR-56" value="" style="endArrow=none;html=1;rounded=0;entryX=0.5;entryY=1;entryDx=0;entryDy=0;exitX=0;exitY=0;exitDx=0;exitDy=0;" edge="1" parent="1" source="MrbG-8pVcBNi91wBxglR-1" target="MrbG-8pVcBNi91wBxglR-47">
          <mxGeometry width="50" height="50" relative="1" as="geometry">
            <mxPoint x="1040" y="790" as="sourcePoint" />
            <mxPoint x="1090" y="740" as="targetPoint" />
          </mxGeometry>
        </mxCell>
        <mxCell id="MrbG-8pVcBNi91wBxglR-57" value="Contact" style="ellipse;whiteSpace=wrap;html=1;" vertex="1" parent="1">
          <mxGeometry x="990" y="1080" width="100" height="40" as="geometry" />
        </mxCell>
        <mxCell id="MrbG-8pVcBNi91wBxglR-58" value="" style="ellipse;whiteSpace=wrap;html=1;fillColor=none;" vertex="1" parent="1">
          <mxGeometry x="1000" y="1084" width="80" height="32" as="geometry" />
        </mxCell>
        <mxCell id="MrbG-8pVcBNi91wBxglR-59" value="" style="endArrow=none;html=1;rounded=0;exitX=0.5;exitY=0;exitDx=0;exitDy=0;entryX=0.75;entryY=1;entryDx=0;entryDy=0;" edge="1" parent="1" source="MrbG-8pVcBNi91wBxglR-57" target="MrbG-8pVcBNi91wBxglR-5">
          <mxGeometry width="50" height="50" relative="1" as="geometry">
            <mxPoint x="1050" y="960" as="sourcePoint" />
            <mxPoint x="1100" y="910" as="targetPoint" />
          </mxGeometry>
        </mxCell>
        <mxCell id="MrbG-8pVcBNi91wBxglR-60" value="" style="endArrow=none;html=1;rounded=0;" edge="1" parent="1" target="MrbG-8pVcBNi91wBxglR-14">
          <mxGeometry width="50" height="50" relative="1" as="geometry">
            <mxPoint x="1010" y="890" as="sourcePoint" />
            <mxPoint x="1085" y="780" as="targetPoint" />
          </mxGeometry>
        </mxCell>
        <mxCell id="MrbG-8pVcBNi91wBxglR-61" value="" style="endArrow=none;html=1;rounded=0;" edge="1" parent="1" source="MrbG-8pVcBNi91wBxglR-14">
          <mxGeometry width="50" height="50" relative="1" as="geometry">
            <mxPoint x="1085" y="730" as="sourcePoint" />
            <mxPoint x="1035" y="640" as="targetPoint" />
          </mxGeometry>
        </mxCell>
        <mxCell id="MrbG-8pVcBNi91wBxglR-62" value="" style="rounded=0;whiteSpace=wrap;html=1;" vertex="1" parent="1">
          <mxGeometry x="1310" y="280" width="160" height="50" as="geometry" />
        </mxCell>
        <mxCell id="MrbG-8pVcBNi91wBxglR-63" value="" style="endArrow=none;html=1;rounded=0;" edge="1" parent="1">
          <mxGeometry width="50" height="50" relative="1" as="geometry">
            <mxPoint x="1470" y="280" as="sourcePoint" />
            <mxPoint x="1520" y="230" as="targetPoint" />
          </mxGeometry>
        </mxCell>
        <mxCell id="MrbG-8pVcBNi91wBxglR-64" value="" style="ellipse;whiteSpace=wrap;html=1;" vertex="1" parent="1">
          <mxGeometry x="1500" y="190" width="120" height="50" as="geometry" />
        </mxCell>
        <mxCell id="MrbG-8pVcBNi91wBxglR-65" value="Baggage_ID" style="text;strokeColor=none;align=center;fillColor=none;html=1;verticalAlign=middle;whiteSpace=wrap;rounded=0;" vertex="1" parent="1">
          <mxGeometry x="1510" y="200" width="90" height="30" as="geometry" />
        </mxCell>
        <mxCell id="MrbG-8pVcBNi91wBxglR-66" value="" style="endArrow=none;html=1;rounded=0;exitX=0.833;exitY=-0.053;exitDx=0;exitDy=0;exitPerimeter=0;" edge="1" parent="1" source="MrbG-8pVcBNi91wBxglR-62">
          <mxGeometry width="50" height="50" relative="1" as="geometry">
            <mxPoint x="1444" y="270" as="sourcePoint" />
            <mxPoint x="1430" y="170" as="targetPoint" />
          </mxGeometry>
        </mxCell>
        <mxCell id="MrbG-8pVcBNi91wBxglR-67" value="" style="ellipse;whiteSpace=wrap;html=1;" vertex="1" parent="1">
          <mxGeometry x="1370" y="100" width="140" height="70" as="geometry" />
        </mxCell>
        <mxCell id="MrbG-8pVcBNi91wBxglR-68" value="" style="ellipse;whiteSpace=wrap;html=1;" vertex="1" parent="1">
          <mxGeometry x="1380" y="110" width="120" height="50" as="geometry" />
        </mxCell>
        <mxCell id="MrbG-8pVcBNi91wBxglR-69" value="Passneger_ID" style="text;strokeColor=none;align=center;fillColor=none;html=1;verticalAlign=middle;whiteSpace=wrap;rounded=0;" vertex="1" parent="1">
          <mxGeometry x="1400" y="120" width="80" height="40" as="geometry" />
        </mxCell>
        <mxCell id="MrbG-8pVcBNi91wBxglR-70" value="" style="rounded=0;whiteSpace=wrap;html=1;" vertex="1" parent="1">
          <mxGeometry x="1320" y="285" width="140" height="40" as="geometry" />
        </mxCell>
        <mxCell id="MrbG-8pVcBNi91wBxglR-71" value="Baggage" style="text;strokeColor=none;align=center;fillColor=none;html=1;verticalAlign=middle;whiteSpace=wrap;rounded=0;" vertex="1" parent="1">
          <mxGeometry x="1340" y="290" width="100" height="30" as="geometry" />
        </mxCell>
        <mxCell id="MrbG-8pVcBNi91wBxglR-72" value="" style="rhombus;whiteSpace=wrap;html=1;" vertex="1" parent="1">
          <mxGeometry x="1210" y="370" width="90" height="100" as="geometry" />
        </mxCell>
        <mxCell id="MrbG-8pVcBNi91wBxglR-73" value="" style="rhombus;whiteSpace=wrap;html=1;" vertex="1" parent="1">
          <mxGeometry x="1220" y="380" width="70" height="80" as="geometry" />
        </mxCell>
        <mxCell id="MrbG-8pVcBNi91wBxglR-74" value="Has&lt;div&gt;1:N&lt;/div&gt;" style="text;strokeColor=none;align=center;fillColor=none;html=1;verticalAlign=middle;whiteSpace=wrap;rounded=0;" vertex="1" parent="1">
          <mxGeometry x="1225" y="405" width="60" height="30" as="geometry" />
        </mxCell>
        <mxCell id="MrbG-8pVcBNi91wBxglR-75" value="" style="endArrow=none;html=1;rounded=0;exitX=0.922;exitY=-0.089;exitDx=0;exitDy=0;exitPerimeter=0;" edge="1" parent="1" source="MrbG-8pVcBNi91wBxglR-1">
          <mxGeometry width="50" height="50" relative="1" as="geometry">
            <mxPoint x="1180" y="490" as="sourcePoint" />
            <mxPoint x="1230" y="440" as="targetPoint" />
          </mxGeometry>
        </mxCell>
        <mxCell id="MrbG-8pVcBNi91wBxglR-76" value="" style="endArrow=none;html=1;rounded=0;" edge="1" parent="1">
          <mxGeometry width="50" height="50" relative="1" as="geometry">
            <mxPoint x="1285" y="400" as="sourcePoint" />
            <mxPoint x="1350" y="330" as="targetPoint" />
          </mxGeometry>
        </mxCell>
        <mxCell id="MrbG-8pVcBNi91wBxglR-77" value="" style="endArrow=none;html=1;rounded=0;" edge="1" parent="1">
          <mxGeometry width="50" height="50" relative="1" as="geometry">
            <mxPoint x="1380" y="280" as="sourcePoint" />
            <mxPoint x="1350" y="220" as="targetPoint" />
          </mxGeometry>
        </mxCell>
        <mxCell id="MrbG-8pVcBNi91wBxglR-78" value="" style="ellipse;whiteSpace=wrap;html=1;" vertex="1" parent="1">
          <mxGeometry x="1250" y="190" width="120" height="40" as="geometry" />
        </mxCell>
        <mxCell id="MrbG-8pVcBNi91wBxglR-79" value="Weight" style="text;strokeColor=none;align=center;fillColor=none;html=1;verticalAlign=middle;whiteSpace=wrap;rounded=0;" vertex="1" parent="1">
          <mxGeometry x="1270" y="195" width="80" height="30" as="geometry" />
        </mxCell>
        <mxCell id="MrbG-8pVcBNi91wBxglR-80" value="" style="endArrow=none;html=1;rounded=0;entryX=0.304;entryY=1.053;entryDx=0;entryDy=0;entryPerimeter=0;" edge="1" parent="1" target="MrbG-8pVcBNi91wBxglR-62">
          <mxGeometry width="50" height="50" relative="1" as="geometry">
            <mxPoint x="1290" y="405" as="sourcePoint" />
            <mxPoint x="1340" y="355" as="targetPoint" />
          </mxGeometry>
        </mxCell>
        <mxCell id="MrbG-8pVcBNi91wBxglR-81" value="" style="endArrow=none;html=1;rounded=0;" edge="1" parent="1">
          <mxGeometry width="50" height="50" relative="1" as="geometry">
            <mxPoint x="700" y="900" as="sourcePoint" />
            <mxPoint x="760" y="900" as="targetPoint" />
          </mxGeometry>
        </mxCell>
        <mxCell id="MrbG-8pVcBNi91wBxglR-82" value="" style="endArrow=none;html=1;rounded=0;exitX=0.942;exitY=0.404;exitDx=0;exitDy=0;exitPerimeter=0;" edge="1" parent="1" source="MrbG-8pVcBNi91wBxglR-9">
          <mxGeometry width="50" height="50" relative="1" as="geometry">
            <mxPoint x="1230" y="900" as="sourcePoint" />
            <mxPoint x="1300" y="910" as="targetPoint" />
          </mxGeometry>
        </mxCell>
        <mxCell id="MrbG-8pVcBNi91wBxglR-83" value="" style="endArrow=none;html=1;rounded=0;exitX=0.433;exitY=-0.111;exitDx=0;exitDy=0;exitPerimeter=0;entryX=0.675;entryY=0.842;entryDx=0;entryDy=0;entryPerimeter=0;" edge="1" parent="1" source="MrbG-8pVcBNi91wBxglR-5" target="MrbG-8pVcBNi91wBxglR-6">
          <mxGeometry width="50" height="50" relative="1" as="geometry">
            <mxPoint x="1000" y="880" as="sourcePoint" />
            <mxPoint x="970" y="795" as="targetPoint" />
          </mxGeometry>
        </mxCell>
      </root>
    </mxGraphModel>
  </diagram>
  <diagram name="Copy of Page-1" id="lrgdJUgOBUNEhJFv_Wya">
    <mxGraphModel dx="878" dy="1265" grid="1" gridSize="10" guides="1" tooltips="1" connect="1" arrows="1" fold="1" page="1" pageScale="1" pageWidth="1900" pageHeight="1900" math="0" shadow="0">
      <root>
        <mxCell id="ubg8C0qmrSHIP7lLvYKl-0" />
        <mxCell id="ubg8C0qmrSHIP7lLvYKl-1" parent="ubg8C0qmrSHIP7lLvYKl-0" />
        <mxCell id="ubg8C0qmrSHIP7lLvYKl-2" value="Passenger" style="rounded=0;whiteSpace=wrap;html=1;" vertex="1" parent="ubg8C0qmrSHIP7lLvYKl-1">
          <mxGeometry x="710" y="560" width="120" height="30" as="geometry" />
        </mxCell>
        <mxCell id="ubg8C0qmrSHIP7lLvYKl-4" value="Aircraft" style="rounded=0;whiteSpace=wrap;html=1;" vertex="1" parent="ubg8C0qmrSHIP7lLvYKl-1">
          <mxGeometry x="1260" y="570" width="120" height="30" as="geometry" />
        </mxCell>
        <mxCell id="ubg8C0qmrSHIP7lLvYKl-5" value="Flight" style="rounded=0;whiteSpace=wrap;html=1;" vertex="1" parent="ubg8C0qmrSHIP7lLvYKl-1">
          <mxGeometry x="1260" y="860" width="120" height="30" as="geometry" />
        </mxCell>
        <mxCell id="ubg8C0qmrSHIP7lLvYKl-6" value="uses" style="rhombus;whiteSpace=wrap;html=1;" vertex="1" parent="ubg8C0qmrSHIP7lLvYKl-1">
          <mxGeometry x="1280" y="680" width="80" height="80" as="geometry" />
        </mxCell>
        <mxCell id="ubg8C0qmrSHIP7lLvYKl-7" value="Reservation" style="rounded=0;whiteSpace=wrap;html=1;" vertex="1" parent="ubg8C0qmrSHIP7lLvYKl-1">
          <mxGeometry x="810" y="850" width="120" height="30" as="geometry" />
        </mxCell>
        <mxCell id="ubg8C0qmrSHIP7lLvYKl-9" value="includes" style="rhombus;whiteSpace=wrap;html=1;" vertex="1" parent="ubg8C0qmrSHIP7lLvYKl-1">
          <mxGeometry x="690" y="670" width="80" height="80" as="geometry" />
        </mxCell>
        <mxCell id="ubg8C0qmrSHIP7lLvYKl-14" value="" style="endArrow=none;html=1;rounded=0;entryX=0.5;entryY=1;entryDx=0;entryDy=0;exitX=1;exitY=0;exitDx=0;exitDy=0;" edge="1" parent="ubg8C0qmrSHIP7lLvYKl-1" source="ubg8C0qmrSHIP7lLvYKl-9" target="ubg8C0qmrSHIP7lLvYKl-2">
          <mxGeometry width="50" height="50" relative="1" as="geometry">
            <mxPoint x="700" y="960" as="sourcePoint" />
            <mxPoint x="750" y="910" as="targetPoint" />
          </mxGeometry>
        </mxCell>
        <mxCell id="ubg8C0qmrSHIP7lLvYKl-15" value="is for" style="rhombus;whiteSpace=wrap;html=1;" vertex="1" parent="ubg8C0qmrSHIP7lLvYKl-1">
          <mxGeometry x="1060" y="825" width="80" height="80" as="geometry" />
        </mxCell>
        <mxCell id="ubg8C0qmrSHIP7lLvYKl-17" value="" style="endArrow=none;html=1;rounded=0;entryX=0;entryY=0.5;entryDx=0;entryDy=0;exitX=1;exitY=0.5;exitDx=0;exitDy=0;" edge="1" parent="ubg8C0qmrSHIP7lLvYKl-1" source="ubg8C0qmrSHIP7lLvYKl-15" target="ubg8C0qmrSHIP7lLvYKl-5">
          <mxGeometry width="50" height="50" relative="1" as="geometry">
            <mxPoint x="1230" y="810" as="sourcePoint" />
            <mxPoint x="1280" y="760" as="targetPoint" />
          </mxGeometry>
        </mxCell>
        <mxCell id="ubg8C0qmrSHIP7lLvYKl-18" value="" style="endArrow=none;html=1;rounded=0;exitX=0.5;exitY=0;exitDx=0;exitDy=0;entryX=0.5;entryY=1;entryDx=0;entryDy=0;" edge="1" parent="ubg8C0qmrSHIP7lLvYKl-1" source="ubg8C0qmrSHIP7lLvYKl-5" target="ubg8C0qmrSHIP7lLvYKl-6">
          <mxGeometry width="50" height="50" relative="1" as="geometry">
            <mxPoint x="1230" y="810" as="sourcePoint" />
            <mxPoint x="1280" y="760" as="targetPoint" />
          </mxGeometry>
        </mxCell>
        <mxCell id="ubg8C0qmrSHIP7lLvYKl-19" value="" style="endArrow=none;html=1;rounded=0;entryX=0.5;entryY=1;entryDx=0;entryDy=0;exitX=0.5;exitY=0;exitDx=0;exitDy=0;" edge="1" parent="ubg8C0qmrSHIP7lLvYKl-1" source="ubg8C0qmrSHIP7lLvYKl-6" target="ubg8C0qmrSHIP7lLvYKl-4">
          <mxGeometry width="50" height="50" relative="1" as="geometry">
            <mxPoint x="1230" y="810" as="sourcePoint" />
            <mxPoint x="1280" y="760" as="targetPoint" />
          </mxGeometry>
        </mxCell>
        <mxCell id="ubg8C0qmrSHIP7lLvYKl-23" value="manages" style="rhombus;whiteSpace=wrap;html=1;" vertex="1" parent="ubg8C0qmrSHIP7lLvYKl-1">
          <mxGeometry x="820" y="660" width="80" height="80" as="geometry" />
        </mxCell>
        <mxCell id="ubg8C0qmrSHIP7lLvYKl-24" value="" style="endArrow=none;html=1;rounded=0;entryX=0.5;entryY=1;entryDx=0;entryDy=0;exitX=0;exitY=0;exitDx=0;exitDy=0;" edge="1" parent="ubg8C0qmrSHIP7lLvYKl-1" source="ubg8C0qmrSHIP7lLvYKl-23" target="ubg8C0qmrSHIP7lLvYKl-2">
          <mxGeometry width="50" height="50" relative="1" as="geometry">
            <mxPoint x="810" y="730" as="sourcePoint" />
            <mxPoint x="860" y="680" as="targetPoint" />
          </mxGeometry>
        </mxCell>
        <mxCell id="ubg8C0qmrSHIP7lLvYKl-44" value="Aircraft_ID" style="ellipse;whiteSpace=wrap;html=1;" vertex="1" parent="ubg8C0qmrSHIP7lLvYKl-1">
          <mxGeometry x="1170" y="470" width="80" height="40" as="geometry" />
        </mxCell>
        <mxCell id="ubg8C0qmrSHIP7lLvYKl-45" value="Model" style="ellipse;whiteSpace=wrap;html=1;" vertex="1" parent="ubg8C0qmrSHIP7lLvYKl-1">
          <mxGeometry x="1270" y="470" width="80" height="40" as="geometry" />
        </mxCell>
        <mxCell id="ubg8C0qmrSHIP7lLvYKl-46" value="Has_WiFI" style="ellipse;whiteSpace=wrap;html=1;" vertex="1" parent="ubg8C0qmrSHIP7lLvYKl-1">
          <mxGeometry x="1370" y="470" width="80" height="40" as="geometry" />
        </mxCell>
        <mxCell id="ubg8C0qmrSHIP7lLvYKl-47" value="Has_Power_Outlets" style="ellipse;whiteSpace=wrap;html=1;" vertex="1" parent="ubg8C0qmrSHIP7lLvYKl-1">
          <mxGeometry x="1420" y="520" width="120" height="40" as="geometry" />
        </mxCell>
        <mxCell id="ubg8C0qmrSHIP7lLvYKl-48" value="Number_Of_Seats" style="ellipse;whiteSpace=wrap;html=1;" vertex="1" parent="ubg8C0qmrSHIP7lLvYKl-1">
          <mxGeometry x="1420" y="580" width="120" height="40" as="geometry" />
        </mxCell>
        <mxCell id="ubg8C0qmrSHIP7lLvYKl-49" value="" style="endArrow=none;html=1;rounded=0;entryX=0.5;entryY=1;entryDx=0;entryDy=0;exitX=0;exitY=0;exitDx=0;exitDy=0;" edge="1" parent="ubg8C0qmrSHIP7lLvYKl-1" source="ubg8C0qmrSHIP7lLvYKl-4" target="ubg8C0qmrSHIP7lLvYKl-44">
          <mxGeometry width="50" height="50" relative="1" as="geometry">
            <mxPoint x="1250" y="800" as="sourcePoint" />
            <mxPoint x="1300" y="750" as="targetPoint" />
          </mxGeometry>
        </mxCell>
        <mxCell id="ubg8C0qmrSHIP7lLvYKl-50" value="" style="endArrow=none;html=1;rounded=0;entryX=0.5;entryY=1;entryDx=0;entryDy=0;exitX=0.5;exitY=0;exitDx=0;exitDy=0;" edge="1" parent="ubg8C0qmrSHIP7lLvYKl-1" source="ubg8C0qmrSHIP7lLvYKl-4" target="ubg8C0qmrSHIP7lLvYKl-45">
          <mxGeometry width="50" height="50" relative="1" as="geometry">
            <mxPoint x="1250" y="800" as="sourcePoint" />
            <mxPoint x="1300" y="750" as="targetPoint" />
          </mxGeometry>
        </mxCell>
        <mxCell id="ubg8C0qmrSHIP7lLvYKl-51" value="" style="endArrow=none;html=1;rounded=0;entryX=0;entryY=1;entryDx=0;entryDy=0;" edge="1" parent="ubg8C0qmrSHIP7lLvYKl-1" target="ubg8C0qmrSHIP7lLvYKl-46">
          <mxGeometry width="50" height="50" relative="1" as="geometry">
            <mxPoint x="1350" y="570" as="sourcePoint" />
            <mxPoint x="1300" y="750" as="targetPoint" />
          </mxGeometry>
        </mxCell>
        <mxCell id="ubg8C0qmrSHIP7lLvYKl-52" value="" style="endArrow=none;html=1;rounded=0;entryX=0;entryY=0.5;entryDx=0;entryDy=0;exitX=1;exitY=0;exitDx=0;exitDy=0;" edge="1" parent="ubg8C0qmrSHIP7lLvYKl-1" source="ubg8C0qmrSHIP7lLvYKl-4" target="ubg8C0qmrSHIP7lLvYKl-47">
          <mxGeometry width="50" height="50" relative="1" as="geometry">
            <mxPoint x="1250" y="800" as="sourcePoint" />
            <mxPoint x="1300" y="750" as="targetPoint" />
          </mxGeometry>
        </mxCell>
        <mxCell id="ubg8C0qmrSHIP7lLvYKl-53" value="" style="endArrow=none;html=1;rounded=0;entryX=0;entryY=0.5;entryDx=0;entryDy=0;exitX=1;exitY=0.75;exitDx=0;exitDy=0;" edge="1" parent="ubg8C0qmrSHIP7lLvYKl-1" source="ubg8C0qmrSHIP7lLvYKl-4" target="ubg8C0qmrSHIP7lLvYKl-48">
          <mxGeometry width="50" height="50" relative="1" as="geometry">
            <mxPoint x="1250" y="800" as="sourcePoint" />
            <mxPoint x="1300" y="750" as="targetPoint" />
          </mxGeometry>
        </mxCell>
        <mxCell id="ubg8C0qmrSHIP7lLvYKl-54" value="Flight_ID" style="ellipse;whiteSpace=wrap;html=1;" vertex="1" parent="ubg8C0qmrSHIP7lLvYKl-1">
          <mxGeometry x="1330" y="940" width="80" height="40" as="geometry" />
        </mxCell>
        <mxCell id="ubg8C0qmrSHIP7lLvYKl-55" value="Flight_Number" style="ellipse;whiteSpace=wrap;html=1;" vertex="1" parent="ubg8C0qmrSHIP7lLvYKl-1">
          <mxGeometry x="1420" y="900" width="80" height="40" as="geometry" />
        </mxCell>
        <mxCell id="ubg8C0qmrSHIP7lLvYKl-56" value="Departure" style="ellipse;whiteSpace=wrap;html=1;" vertex="1" parent="ubg8C0qmrSHIP7lLvYKl-1">
          <mxGeometry x="1420" y="840" width="80" height="40" as="geometry" />
        </mxCell>
        <mxCell id="ubg8C0qmrSHIP7lLvYKl-57" value="Arrival" style="ellipse;whiteSpace=wrap;html=1;" vertex="1" parent="ubg8C0qmrSHIP7lLvYKl-1">
          <mxGeometry x="1200" y="930" width="80" height="40" as="geometry" />
        </mxCell>
        <mxCell id="ubg8C0qmrSHIP7lLvYKl-58" value="Destination" style="ellipse;whiteSpace=wrap;html=1;" vertex="1" parent="ubg8C0qmrSHIP7lLvYKl-1">
          <mxGeometry x="1380" y="770" width="80" height="40" as="geometry" />
        </mxCell>
        <mxCell id="ubg8C0qmrSHIP7lLvYKl-59" value="Origin" style="ellipse;whiteSpace=wrap;html=1;" vertex="1" parent="ubg8C0qmrSHIP7lLvYKl-1">
          <mxGeometry x="1260" y="990" width="80" height="40" as="geometry" />
        </mxCell>
        <mxCell id="ubg8C0qmrSHIP7lLvYKl-60" value="" style="endArrow=none;html=1;rounded=0;entryX=0;entryY=1;entryDx=0;entryDy=0;exitX=0.75;exitY=0;exitDx=0;exitDy=0;" edge="1" parent="ubg8C0qmrSHIP7lLvYKl-1" source="ubg8C0qmrSHIP7lLvYKl-5" target="ubg8C0qmrSHIP7lLvYKl-58">
          <mxGeometry width="50" height="50" relative="1" as="geometry">
            <mxPoint x="1270" y="800" as="sourcePoint" />
            <mxPoint x="1320" y="750" as="targetPoint" />
          </mxGeometry>
        </mxCell>
        <mxCell id="ubg8C0qmrSHIP7lLvYKl-61" value="" style="endArrow=none;html=1;rounded=0;entryX=0;entryY=0.5;entryDx=0;entryDy=0;exitX=1;exitY=0.25;exitDx=0;exitDy=0;" edge="1" parent="ubg8C0qmrSHIP7lLvYKl-1" source="ubg8C0qmrSHIP7lLvYKl-5" target="ubg8C0qmrSHIP7lLvYKl-56">
          <mxGeometry width="50" height="50" relative="1" as="geometry">
            <mxPoint x="1270" y="800" as="sourcePoint" />
            <mxPoint x="1320" y="750" as="targetPoint" />
          </mxGeometry>
        </mxCell>
        <mxCell id="ubg8C0qmrSHIP7lLvYKl-62" value="" style="endArrow=none;html=1;rounded=0;entryX=0;entryY=0.5;entryDx=0;entryDy=0;exitX=1;exitY=1;exitDx=0;exitDy=0;" edge="1" parent="ubg8C0qmrSHIP7lLvYKl-1" source="ubg8C0qmrSHIP7lLvYKl-5" target="ubg8C0qmrSHIP7lLvYKl-55">
          <mxGeometry width="50" height="50" relative="1" as="geometry">
            <mxPoint x="1270" y="800" as="sourcePoint" />
            <mxPoint x="1320" y="750" as="targetPoint" />
          </mxGeometry>
        </mxCell>
        <mxCell id="ubg8C0qmrSHIP7lLvYKl-63" value="" style="endArrow=none;html=1;rounded=0;entryX=0.5;entryY=0;entryDx=0;entryDy=0;exitX=0.75;exitY=1;exitDx=0;exitDy=0;" edge="1" parent="ubg8C0qmrSHIP7lLvYKl-1" source="ubg8C0qmrSHIP7lLvYKl-5" target="ubg8C0qmrSHIP7lLvYKl-54">
          <mxGeometry width="50" height="50" relative="1" as="geometry">
            <mxPoint x="1270" y="800" as="sourcePoint" />
            <mxPoint x="1320" y="750" as="targetPoint" />
          </mxGeometry>
        </mxCell>
        <mxCell id="ubg8C0qmrSHIP7lLvYKl-64" value="" style="endArrow=none;html=1;rounded=0;entryX=0.5;entryY=0;entryDx=0;entryDy=0;exitX=0.5;exitY=1;exitDx=0;exitDy=0;" edge="1" parent="ubg8C0qmrSHIP7lLvYKl-1" source="ubg8C0qmrSHIP7lLvYKl-5" target="ubg8C0qmrSHIP7lLvYKl-59">
          <mxGeometry width="50" height="50" relative="1" as="geometry">
            <mxPoint x="1270" y="800" as="sourcePoint" />
            <mxPoint x="1320" y="750" as="targetPoint" />
          </mxGeometry>
        </mxCell>
        <mxCell id="ubg8C0qmrSHIP7lLvYKl-65" value="" style="endArrow=none;html=1;rounded=0;exitX=0.5;exitY=0;exitDx=0;exitDy=0;entryX=0;entryY=1;entryDx=0;entryDy=0;" edge="1" parent="ubg8C0qmrSHIP7lLvYKl-1" source="ubg8C0qmrSHIP7lLvYKl-57" target="ubg8C0qmrSHIP7lLvYKl-5">
          <mxGeometry width="50" height="50" relative="1" as="geometry">
            <mxPoint x="1270" y="800" as="sourcePoint" />
            <mxPoint x="1320" y="750" as="targetPoint" />
          </mxGeometry>
        </mxCell>
        <mxCell id="ubg8C0qmrSHIP7lLvYKl-68" value="Reservation_ID" style="ellipse;whiteSpace=wrap;html=1;" vertex="1" parent="ubg8C0qmrSHIP7lLvYKl-1">
          <mxGeometry x="740" y="930" width="100" height="40" as="geometry" />
        </mxCell>
        <mxCell id="ubg8C0qmrSHIP7lLvYKl-69" value="Booking_Reference_Number" style="ellipse;whiteSpace=wrap;html=1;" vertex="1" parent="ubg8C0qmrSHIP7lLvYKl-1">
          <mxGeometry x="730" y="990" width="170" height="40" as="geometry" />
        </mxCell>
        <mxCell id="ubg8C0qmrSHIP7lLvYKl-70" value="Reservation_Date" style="ellipse;whiteSpace=wrap;html=1;" vertex="1" parent="ubg8C0qmrSHIP7lLvYKl-1">
          <mxGeometry x="940" y="900" width="100" height="40" as="geometry" />
        </mxCell>
        <mxCell id="ubg8C0qmrSHIP7lLvYKl-71" value="Is_Checked_In" style="ellipse;whiteSpace=wrap;html=1;" vertex="1" parent="ubg8C0qmrSHIP7lLvYKl-1">
          <mxGeometry x="915" y="950" width="100" height="40" as="geometry" />
        </mxCell>
        <mxCell id="ubg8C0qmrSHIP7lLvYKl-72" value="" style="endArrow=none;html=1;rounded=0;entryX=0.25;entryY=1;entryDx=0;entryDy=0;exitX=0.5;exitY=0;exitDx=0;exitDy=0;" edge="1" parent="ubg8C0qmrSHIP7lLvYKl-1" source="ubg8C0qmrSHIP7lLvYKl-68" target="ubg8C0qmrSHIP7lLvYKl-7">
          <mxGeometry width="50" height="50" relative="1" as="geometry">
            <mxPoint x="900" y="1100" as="sourcePoint" />
            <mxPoint x="950" y="1050" as="targetPoint" />
          </mxGeometry>
        </mxCell>
        <mxCell id="ubg8C0qmrSHIP7lLvYKl-73" value="" style="endArrow=none;html=1;rounded=0;entryX=0.5;entryY=1;entryDx=0;entryDy=0;exitX=0.682;exitY=0.038;exitDx=0;exitDy=0;exitPerimeter=0;" edge="1" parent="ubg8C0qmrSHIP7lLvYKl-1" source="ubg8C0qmrSHIP7lLvYKl-69" target="ubg8C0qmrSHIP7lLvYKl-7">
          <mxGeometry width="50" height="50" relative="1" as="geometry">
            <mxPoint x="860" y="980" as="sourcePoint" />
            <mxPoint x="950" y="1050" as="targetPoint" />
          </mxGeometry>
        </mxCell>
        <mxCell id="ubg8C0qmrSHIP7lLvYKl-74" value="" style="endArrow=none;html=1;rounded=0;entryX=0.75;entryY=1;entryDx=0;entryDy=0;exitX=0;exitY=0;exitDx=0;exitDy=0;" edge="1" parent="ubg8C0qmrSHIP7lLvYKl-1" source="ubg8C0qmrSHIP7lLvYKl-71" target="ubg8C0qmrSHIP7lLvYKl-7">
          <mxGeometry width="50" height="50" relative="1" as="geometry">
            <mxPoint x="900" y="1100" as="sourcePoint" />
            <mxPoint x="950" y="1050" as="targetPoint" />
          </mxGeometry>
        </mxCell>
        <mxCell id="ubg8C0qmrSHIP7lLvYKl-75" value="" style="endArrow=none;html=1;rounded=0;entryX=1;entryY=1;entryDx=0;entryDy=0;exitX=0;exitY=0;exitDx=0;exitDy=0;" edge="1" parent="ubg8C0qmrSHIP7lLvYKl-1" source="ubg8C0qmrSHIP7lLvYKl-70" target="ubg8C0qmrSHIP7lLvYKl-7">
          <mxGeometry width="50" height="50" relative="1" as="geometry">
            <mxPoint x="900" y="1100" as="sourcePoint" />
            <mxPoint x="950" y="1050" as="targetPoint" />
          </mxGeometry>
        </mxCell>
        <mxCell id="ubg8C0qmrSHIP7lLvYKl-76" value="Passenger_ID" style="ellipse;whiteSpace=wrap;html=1;" vertex="1" parent="ubg8C0qmrSHIP7lLvYKl-1">
          <mxGeometry x="640" y="490" width="80" height="40" as="geometry" />
        </mxCell>
        <mxCell id="ubg8C0qmrSHIP7lLvYKl-77" value="Name" style="ellipse;whiteSpace=wrap;html=1;" vertex="1" parent="ubg8C0qmrSHIP7lLvYKl-1">
          <mxGeometry x="760" y="490" width="80" height="40" as="geometry" />
        </mxCell>
        <mxCell id="ubg8C0qmrSHIP7lLvYKl-78" value="First Name" style="ellipse;whiteSpace=wrap;html=1;" vertex="1" parent="ubg8C0qmrSHIP7lLvYKl-1">
          <mxGeometry x="700" y="410" width="80" height="40" as="geometry" />
        </mxCell>
        <mxCell id="ubg8C0qmrSHIP7lLvYKl-79" value="Last Name" style="ellipse;whiteSpace=wrap;html=1;" vertex="1" parent="ubg8C0qmrSHIP7lLvYKl-1">
          <mxGeometry x="820" y="410" width="80" height="40" as="geometry" />
        </mxCell>
        <mxCell id="ubg8C0qmrSHIP7lLvYKl-80" value="" style="endArrow=none;html=1;rounded=0;entryX=0.5;entryY=1;entryDx=0;entryDy=0;exitX=0.182;exitY=-0.019;exitDx=0;exitDy=0;exitPerimeter=0;" edge="1" parent="ubg8C0qmrSHIP7lLvYKl-1" target="ubg8C0qmrSHIP7lLvYKl-78">
          <mxGeometry width="50" height="50" relative="1" as="geometry">
            <mxPoint x="777.74" y="491.83500000000004" as="sourcePoint" />
            <mxPoint x="810" y="730" as="targetPoint" />
          </mxGeometry>
        </mxCell>
        <mxCell id="ubg8C0qmrSHIP7lLvYKl-82" value="Date_Of_Birth" style="ellipse;whiteSpace=wrap;html=1;" vertex="1" parent="ubg8C0qmrSHIP7lLvYKl-1">
          <mxGeometry x="865" y="565" width="80" height="40" as="geometry" />
        </mxCell>
        <mxCell id="ubg8C0qmrSHIP7lLvYKl-83" value="" style="endArrow=none;html=1;rounded=0;entryX=0;entryY=0.5;entryDx=0;entryDy=0;exitX=1;exitY=0;exitDx=0;exitDy=0;" edge="1" parent="ubg8C0qmrSHIP7lLvYKl-1" source="ubg8C0qmrSHIP7lLvYKl-2" target="ubg8C0qmrSHIP7lLvYKl-82">
          <mxGeometry width="50" height="50" relative="1" as="geometry">
            <mxPoint x="780" y="740" as="sourcePoint" />
            <mxPoint x="830" y="690" as="targetPoint" />
          </mxGeometry>
        </mxCell>
        <mxCell id="ubg8C0qmrSHIP7lLvYKl-84" value="" style="endArrow=none;html=1;rounded=0;entryX=0.5;entryY=1;entryDx=0;entryDy=0;" edge="1" parent="ubg8C0qmrSHIP7lLvYKl-1" target="ubg8C0qmrSHIP7lLvYKl-77">
          <mxGeometry width="50" height="50" relative="1" as="geometry">
            <mxPoint x="800" y="560" as="sourcePoint" />
            <mxPoint x="830" y="690" as="targetPoint" />
          </mxGeometry>
        </mxCell>
        <mxCell id="ubg8C0qmrSHIP7lLvYKl-85" value="" style="endArrow=none;html=1;rounded=0;entryX=0.5;entryY=1;entryDx=0;entryDy=0;exitX=0;exitY=0;exitDx=0;exitDy=0;" edge="1" parent="ubg8C0qmrSHIP7lLvYKl-1" source="ubg8C0qmrSHIP7lLvYKl-2" target="ubg8C0qmrSHIP7lLvYKl-76">
          <mxGeometry width="50" height="50" relative="1" as="geometry">
            <mxPoint x="780" y="740" as="sourcePoint" />
            <mxPoint x="830" y="690" as="targetPoint" />
          </mxGeometry>
        </mxCell>
        <mxCell id="ubg8C0qmrSHIP7lLvYKl-86" value="Contact" style="ellipse;whiteSpace=wrap;html=1;" vertex="1" parent="ubg8C0qmrSHIP7lLvYKl-1">
          <mxGeometry x="860" y="1040" width="100" height="40" as="geometry" />
        </mxCell>
        <mxCell id="ubg8C0qmrSHIP7lLvYKl-87" value="" style="ellipse;whiteSpace=wrap;html=1;fillColor=none;" vertex="1" parent="ubg8C0qmrSHIP7lLvYKl-1">
          <mxGeometry x="870" y="1044" width="80" height="32" as="geometry" />
        </mxCell>
        <mxCell id="ubg8C0qmrSHIP7lLvYKl-88" value="" style="endArrow=none;html=1;rounded=0;exitX=0.5;exitY=0;exitDx=0;exitDy=0;entryX=0.75;entryY=1;entryDx=0;entryDy=0;" edge="1" parent="ubg8C0qmrSHIP7lLvYKl-1" target="ubg8C0qmrSHIP7lLvYKl-7">
          <mxGeometry width="50" height="50" relative="1" as="geometry">
            <mxPoint x="910.0000000000002" y="1040" as="sourcePoint" />
            <mxPoint x="970" y="870" as="targetPoint" />
          </mxGeometry>
        </mxCell>
        <mxCell id="IPNNBi-z3aiCO7a37Wyl-0" value="" style="endArrow=none;html=1;rounded=0;exitX=0;exitY=0;exitDx=0;exitDy=0;entryX=0.719;entryY=0.844;entryDx=0;entryDy=0;entryPerimeter=0;" edge="1" parent="ubg8C0qmrSHIP7lLvYKl-1" source="ubg8C0qmrSHIP7lLvYKl-7" target="ubg8C0qmrSHIP7lLvYKl-9">
          <mxGeometry width="50" height="50" relative="1" as="geometry">
            <mxPoint x="880" y="830" as="sourcePoint" />
            <mxPoint x="930" y="780" as="targetPoint" />
          </mxGeometry>
        </mxCell>
        <mxCell id="IPNNBi-z3aiCO7a37Wyl-3" value="has" style="rhombus;whiteSpace=wrap;html=1;" vertex="1" parent="ubg8C0qmrSHIP7lLvYKl-1">
          <mxGeometry x="950" y="430" width="80" height="80" as="geometry" />
        </mxCell>
        <mxCell id="IPNNBi-z3aiCO7a37Wyl-4" value="" style="endArrow=none;html=1;rounded=0;entryX=0;entryY=1;entryDx=0;entryDy=0;exitX=1;exitY=0;exitDx=0;exitDy=0;" edge="1" parent="ubg8C0qmrSHIP7lLvYKl-1" source="ubg8C0qmrSHIP7lLvYKl-2" target="IPNNBi-z3aiCO7a37Wyl-3">
          <mxGeometry width="50" height="50" relative="1" as="geometry">
            <mxPoint x="970" y="830" as="sourcePoint" />
            <mxPoint x="1020" y="780" as="targetPoint" />
          </mxGeometry>
        </mxCell>
        <mxCell id="IPNNBi-z3aiCO7a37Wyl-6" value="baggage" style="rounded=0;whiteSpace=wrap;html=1;" vertex="1" parent="ubg8C0qmrSHIP7lLvYKl-1">
          <mxGeometry x="1080" y="370" width="120" height="30" as="geometry" />
        </mxCell>
        <mxCell id="IPNNBi-z3aiCO7a37Wyl-7" value="" style="endArrow=none;html=1;rounded=0;entryX=0;entryY=1;entryDx=0;entryDy=0;exitX=1;exitY=0;exitDx=0;exitDy=0;" edge="1" parent="ubg8C0qmrSHIP7lLvYKl-1" source="IPNNBi-z3aiCO7a37Wyl-3" target="IPNNBi-z3aiCO7a37Wyl-6">
          <mxGeometry width="50" height="50" relative="1" as="geometry">
            <mxPoint x="970" y="830" as="sourcePoint" />
            <mxPoint x="1020" y="780" as="targetPoint" />
          </mxGeometry>
        </mxCell>
        <mxCell id="IPNNBi-z3aiCO7a37Wyl-8" value="Baggage_ID" style="ellipse;whiteSpace=wrap;html=1;" vertex="1" parent="ubg8C0qmrSHIP7lLvYKl-1">
          <mxGeometry x="970" y="300" width="80" height="40" as="geometry" />
        </mxCell>
        <mxCell id="IPNNBi-z3aiCO7a37Wyl-10" value="Passenger_ID" style="ellipse;whiteSpace=wrap;html=1;" vertex="1" parent="ubg8C0qmrSHIP7lLvYKl-1">
          <mxGeometry x="1070" y="300" width="80" height="40" as="geometry" />
        </mxCell>
        <mxCell id="IPNNBi-z3aiCO7a37Wyl-11" value="Baggage_Type" style="ellipse;whiteSpace=wrap;html=1;" vertex="1" parent="ubg8C0qmrSHIP7lLvYKl-1">
          <mxGeometry x="1170" y="300" width="80" height="40" as="geometry" />
        </mxCell>
        <mxCell id="IPNNBi-z3aiCO7a37Wyl-12" value="Weight" style="ellipse;whiteSpace=wrap;html=1;" vertex="1" parent="ubg8C0qmrSHIP7lLvYKl-1">
          <mxGeometry x="1230" y="360" width="80" height="40" as="geometry" />
        </mxCell>
        <mxCell id="IPNNBi-z3aiCO7a37Wyl-14" value="" style="endArrow=none;html=1;rounded=0;entryX=0.5;entryY=1;entryDx=0;entryDy=0;exitX=0;exitY=0;exitDx=0;exitDy=0;" edge="1" parent="ubg8C0qmrSHIP7lLvYKl-1" source="IPNNBi-z3aiCO7a37Wyl-6" target="IPNNBi-z3aiCO7a37Wyl-8">
          <mxGeometry width="50" height="50" relative="1" as="geometry">
            <mxPoint x="1080" y="530" as="sourcePoint" />
            <mxPoint x="1130" y="480" as="targetPoint" />
          </mxGeometry>
        </mxCell>
        <mxCell id="IPNNBi-z3aiCO7a37Wyl-15" value="" style="endArrow=none;html=1;rounded=0;entryX=0.5;entryY=1;entryDx=0;entryDy=0;exitX=0.5;exitY=0;exitDx=0;exitDy=0;" edge="1" parent="ubg8C0qmrSHIP7lLvYKl-1" source="IPNNBi-z3aiCO7a37Wyl-6" target="IPNNBi-z3aiCO7a37Wyl-10">
          <mxGeometry width="50" height="50" relative="1" as="geometry">
            <mxPoint x="1080" y="510" as="sourcePoint" />
            <mxPoint x="1130" y="460" as="targetPoint" />
          </mxGeometry>
        </mxCell>
        <mxCell id="IPNNBi-z3aiCO7a37Wyl-16" value="" style="endArrow=none;html=1;rounded=0;entryX=0.5;entryY=1;entryDx=0;entryDy=0;exitX=0.75;exitY=0;exitDx=0;exitDy=0;" edge="1" parent="ubg8C0qmrSHIP7lLvYKl-1" source="IPNNBi-z3aiCO7a37Wyl-6" target="IPNNBi-z3aiCO7a37Wyl-11">
          <mxGeometry width="50" height="50" relative="1" as="geometry">
            <mxPoint x="1080" y="510" as="sourcePoint" />
            <mxPoint x="1130" y="460" as="targetPoint" />
          </mxGeometry>
        </mxCell>
        <mxCell id="IPNNBi-z3aiCO7a37Wyl-17" value="" style="endArrow=none;html=1;rounded=0;entryX=0;entryY=0.5;entryDx=0;entryDy=0;exitX=1;exitY=0.5;exitDx=0;exitDy=0;" edge="1" parent="ubg8C0qmrSHIP7lLvYKl-1" source="IPNNBi-z3aiCO7a37Wyl-6" target="IPNNBi-z3aiCO7a37Wyl-12">
          <mxGeometry width="50" height="50" relative="1" as="geometry">
            <mxPoint x="1080" y="510" as="sourcePoint" />
            <mxPoint x="1130" y="460" as="targetPoint" />
          </mxGeometry>
        </mxCell>
        <mxCell id="IPNNBi-z3aiCO7a37Wyl-19" value="" style="rounded=0;whiteSpace=wrap;html=1;fillColor=none;" vertex="1" parent="ubg8C0qmrSHIP7lLvYKl-1">
          <mxGeometry x="1090" y="372.5" width="100" height="25" as="geometry" />
        </mxCell>
        <mxCell id="IPNNBi-z3aiCO7a37Wyl-20" value="" style="rhombus;whiteSpace=wrap;html=1;fillColor=none;" vertex="1" parent="ubg8C0qmrSHIP7lLvYKl-1">
          <mxGeometry x="965" y="445" width="50" height="50" as="geometry" />
        </mxCell>
        <mxCell id="IPNNBi-z3aiCO7a37Wyl-21" value="" style="endArrow=none;html=1;rounded=0;entryX=0;entryY=0.5;entryDx=0;entryDy=0;exitX=1;exitY=0.5;exitDx=0;exitDy=0;" edge="1" parent="ubg8C0qmrSHIP7lLvYKl-1" source="ubg8C0qmrSHIP7lLvYKl-7" target="ubg8C0qmrSHIP7lLvYKl-15">
          <mxGeometry width="50" height="50" relative="1" as="geometry">
            <mxPoint x="970" y="970" as="sourcePoint" />
            <mxPoint x="1020" y="920" as="targetPoint" />
          </mxGeometry>
        </mxCell>
        <mxCell id="IPNNBi-z3aiCO7a37Wyl-23" value="Email" style="ellipse;whiteSpace=wrap;html=1;" vertex="1" parent="ubg8C0qmrSHIP7lLvYKl-1">
          <mxGeometry x="800" y="1110" width="100" height="40" as="geometry" />
        </mxCell>
        <mxCell id="IPNNBi-z3aiCO7a37Wyl-24" value="Phone" style="ellipse;whiteSpace=wrap;html=1;" vertex="1" parent="ubg8C0qmrSHIP7lLvYKl-1">
          <mxGeometry x="910" y="1110" width="100" height="40" as="geometry" />
        </mxCell>
        <mxCell id="IPNNBi-z3aiCO7a37Wyl-25" value="" style="endArrow=none;html=1;rounded=0;exitX=0.5;exitY=1;exitDx=0;exitDy=0;entryX=0.5;entryY=0;entryDx=0;entryDy=0;" edge="1" parent="ubg8C0qmrSHIP7lLvYKl-1" source="ubg8C0qmrSHIP7lLvYKl-23" target="ubg8C0qmrSHIP7lLvYKl-7">
          <mxGeometry width="50" height="50" relative="1" as="geometry">
            <mxPoint x="940" y="740" as="sourcePoint" />
            <mxPoint x="990" y="690" as="targetPoint" />
          </mxGeometry>
        </mxCell>
        <mxCell id="xCr505NhfbBfNG94J5v7-0" value="" style="endArrow=none;html=1;rounded=0;exitX=0.5;exitY=0;exitDx=0;exitDy=0;entryX=0;entryY=1;entryDx=0;entryDy=0;" edge="1" parent="ubg8C0qmrSHIP7lLvYKl-1" source="IPNNBi-z3aiCO7a37Wyl-23" target="ubg8C0qmrSHIP7lLvYKl-86">
          <mxGeometry width="50" height="50" relative="1" as="geometry">
            <mxPoint x="1050" y="730" as="sourcePoint" />
            <mxPoint x="1100" y="680" as="targetPoint" />
          </mxGeometry>
        </mxCell>
        <mxCell id="xCr505NhfbBfNG94J5v7-2" value="" style="endArrow=none;html=1;rounded=0;entryX=0.5;entryY=0;entryDx=0;entryDy=0;exitX=1;exitY=1;exitDx=0;exitDy=0;" edge="1" parent="ubg8C0qmrSHIP7lLvYKl-1" source="ubg8C0qmrSHIP7lLvYKl-87" target="IPNNBi-z3aiCO7a37Wyl-24">
          <mxGeometry width="50" height="50" relative="1" as="geometry">
            <mxPoint x="1050" y="730" as="sourcePoint" />
            <mxPoint x="1100" y="680" as="targetPoint" />
          </mxGeometry>
        </mxCell>
      </root>
    </mxGraphModel>
  </diagram>
</mxfile>
